<?xml version="1.0" encoding="UTF-8" standalone="no"?>
<svg
   xmlns:dc="http://purl.org/dc/elements/1.1/"
   xmlns:cc="http://creativecommons.org/ns#"
   xmlns:rdf="http://www.w3.org/1999/02/22-rdf-syntax-ns#"
   xmlns:svg="http://www.w3.org/2000/svg"
   xmlns="http://www.w3.org/2000/svg"
   version="1"
   width="666.667"
   height="666.667"
   viewBox="0 0 500.000000 500.000000"
   id="svg4">
  <metadata
     id="metadata10">
    <rdf:RDF>
      <cc:Work
         rdf:about="">
        <dc:format>image/svg+xml</dc:format>
        <dc:type
           rdf:resource="http://purl.org/dc/dcmitype/StillImage" />
        <dc:title />
      </cc:Work>
    </rdf:RDF>
  </metadata>
  <defs
     id="defs8" />
  <rect
     width="100%"
     height="100%"
     fill="black"
     id="rect4" />
  <g
     aria-label="BV"
     id="text14"
     style="font-size:353.393px;line-height:100%;font-family:'Tenor Sans';-inkscape-font-specification:'Tenor Sans';letter-spacing:0px;word-spacing:0px;fill:#ffffff;stroke:#000000;stroke-width:1.84059px;stroke-linecap:butt;stroke-linejoin:miter;stroke-opacity:1">
    <path
       d="m 42.07713,353.65857 h 88.70164 q 23.67734,0 39.93341,-6.00768 16.25608,-6.36108 26.15109,-16.25608 9.895,-9.895 14.13572,-22.26376 4.59411,-12.72215 4.59411,-25.4443 0,-20.1434 -8.83483,-32.15876 -8.48143,-12.01536 -20.49679,-18.37644 -12.01537,-6.36107 -24.73751,-8.48143 -12.72215,-2.12036 -20.4968,-2.47375 v -1.41357 q 12.36876,0 23.32394,-4.59411 10.95518,-4.9475 19.08322,-12.36875 8.48143,-7.77465 13.42894,-17.66966 4.9475,-10.24839 4.9475,-21.55697 0,-9.895 -4.24072,-20.1434 -4.24071,-10.2484 -13.07554,-18.72983 -8.48143,-8.48143 -22.26376,-13.78233 -13.42893,-5.65428 -31.80537,-5.65428 H 42.07713 Z M 74.235893,338.10928 V 229.97102 h 38.873227 q 17.31626,0 30.03841,4.59411 12.72215,4.59411 20.85019,12.36875 8.48143,7.77465 12.36875,18.02304 4.24072,10.2484 4.24072,21.55698 0,12.36875 -4.59411,21.91036 -4.24072,9.54162 -11.66197,16.25608 -7.42125,6.71447 -17.66965,10.2484 -9.895,3.18054 -21.20358,3.18054 z m 0,-123.68755 v -92.58897 h 43.113947 q 13.78233,0 23.32394,3.88732 9.895,3.88732 15.90268,10.2484 6.36108,6.36107 9.18822,14.48911 2.82715,8.12804 2.82715,16.25608 0,10.2484 -4.24072,19.08322 -3.88732,8.83483 -11.30858,15.1959 -7.06786,6.36108 -16.60947,9.89501 -9.18822,3.53393 -19.79001,3.53393 z"
       style="font-size:353.393px;fill:#ffffff;stroke-width:1.84059px"
       id="path29" />
    <path
       d="m 243.56636,106.28347 103.54415,247.3751 h 21.20358 L 468.67771,106.28347 H 450.30127 L 367.9607,309.83784 h -1.41357 L 281.73281,106.28347 Z"
       style="font-size:353.393px;fill:#ffffff;stroke-width:1.84059px"
       id="path31" />
  </g>
</svg>
